<mxfile host="Electron" agent="Mozilla/5.0 (Windows NT 10.0; Win64; x64) AppleWebKit/537.36 (KHTML, like Gecko) draw.io/24.7.17 Chrome/128.0.6613.36 Electron/32.0.1 Safari/537.36" version="24.7.17">
  <diagram name="Page-1" id="npxdSpArlws5K5_9Jj4K">
    <mxGraphModel dx="1246" dy="533" grid="1" gridSize="10" guides="1" tooltips="1" connect="1" arrows="1" fold="1" page="1" pageScale="1" pageWidth="827" pageHeight="1169" math="0" shadow="0">
      <root>
        <mxCell id="0" />
        <mxCell id="1" parent="0" />
        <mxCell id="fu6rHGTz5UAiN8QeflM3-1" value="" style="ellipse;html=1;shape=startState;fillColor=#000000;strokeColor=#ff0000;fontSize=15;" parent="1" vertex="1">
          <mxGeometry x="370" y="30" width="30" height="30" as="geometry" />
        </mxCell>
        <mxCell id="fu6rHGTz5UAiN8QeflM3-2" value="" style="edgeStyle=orthogonalEdgeStyle;html=1;verticalAlign=bottom;endArrow=open;endSize=8;strokeColor=#ff0000;rounded=0;fontSize=15;" parent="1" source="fu6rHGTz5UAiN8QeflM3-1" edge="1">
          <mxGeometry relative="1" as="geometry">
            <mxPoint x="385" y="120" as="targetPoint" />
          </mxGeometry>
        </mxCell>
        <mxCell id="fu6rHGTz5UAiN8QeflM3-3" value="idle" style="swimlane;fontStyle=1;align=center;verticalAlign=middle;childLayout=stackLayout;horizontal=1;startSize=30;horizontalStack=0;resizeParent=0;resizeLast=1;container=0;fontColor=#000000;collapsible=0;rounded=1;arcSize=30;strokeColor=#ff0000;fillColor=#ffffc0;swimlaneFillColor=#ffffc0;dropTarget=0;fontSize=15;" parent="1" vertex="1">
          <mxGeometry x="332" y="120" width="112" height="60" as="geometry" />
        </mxCell>
        <mxCell id="fu6rHGTz5UAiN8QeflM3-5" value="" style="edgeStyle=orthogonalEdgeStyle;html=1;verticalAlign=bottom;endArrow=open;endSize=8;strokeColor=#ff0000;rounded=0;fontSize=15;" parent="1" edge="1">
          <mxGeometry relative="1" as="geometry">
            <mxPoint x="388" y="234" as="targetPoint" />
            <mxPoint x="388" y="182" as="sourcePoint" />
          </mxGeometry>
        </mxCell>
        <mxCell id="fu6rHGTz5UAiN8QeflM3-6" value="Location Dectection" style="swimlane;fontStyle=1;align=center;verticalAlign=middle;childLayout=stackLayout;horizontal=1;startSize=30;horizontalStack=0;resizeParent=0;resizeLast=1;container=0;fontColor=#000000;collapsible=0;rounded=1;arcSize=30;strokeColor=#ff0000;fillColor=#ffffc0;swimlaneFillColor=#ffffc0;dropTarget=0;fontSize=15;" parent="1" vertex="1">
          <mxGeometry x="314" y="220" width="145" height="60" as="geometry" />
        </mxCell>
        <mxCell id="fu6rHGTz5UAiN8QeflM3-7" value="" style="edgeStyle=orthogonalEdgeStyle;html=1;verticalAlign=bottom;endArrow=open;endSize=8;strokeColor=#ff0000;rounded=0;fontSize=15;" parent="1" edge="1">
          <mxGeometry relative="1" as="geometry">
            <mxPoint x="391" y="334" as="targetPoint" />
            <mxPoint x="391" y="282" as="sourcePoint" />
          </mxGeometry>
        </mxCell>
        <mxCell id="fu6rHGTz5UAiN8QeflM3-8" value="Location Decected" style="edgeLabel;html=1;align=center;verticalAlign=middle;resizable=0;points=[];fontSize=15;" parent="fu6rHGTz5UAiN8QeflM3-7" vertex="1" connectable="0">
          <mxGeometry x="-0.3846" relative="1" as="geometry">
            <mxPoint as="offset" />
          </mxGeometry>
        </mxCell>
        <mxCell id="fu6rHGTz5UAiN8QeflM3-9" value="Fetch weather Data" style="swimlane;fontStyle=1;align=center;verticalAlign=middle;childLayout=stackLayout;horizontal=1;startSize=30;horizontalStack=0;resizeParent=0;resizeLast=1;container=0;fontColor=#000000;collapsible=0;rounded=1;arcSize=30;strokeColor=#ff0000;fillColor=#ffffc0;swimlaneFillColor=#ffffc0;dropTarget=0;fontSize=15;" parent="1" vertex="1">
          <mxGeometry x="325" y="333" width="130" height="60" as="geometry" />
        </mxCell>
        <mxCell id="fu6rHGTz5UAiN8QeflM3-10" value="" style="edgeStyle=orthogonalEdgeStyle;html=1;verticalAlign=bottom;endArrow=open;endSize=8;strokeColor=#ff0000;rounded=0;fontSize=15;" parent="1" edge="1">
          <mxGeometry relative="1" as="geometry">
            <mxPoint x="390" y="444" as="targetPoint" />
            <mxPoint x="390" y="392" as="sourcePoint" />
          </mxGeometry>
        </mxCell>
        <mxCell id="fu6rHGTz5UAiN8QeflM3-11" value="weather data fetched" style="edgeLabel;html=1;align=center;verticalAlign=middle;resizable=0;points=[];fontSize=15;" parent="fu6rHGTz5UAiN8QeflM3-10" vertex="1" connectable="0">
          <mxGeometry x="-0.5385" relative="1" as="geometry">
            <mxPoint as="offset" />
          </mxGeometry>
        </mxCell>
        <mxCell id="fu6rHGTz5UAiN8QeflM3-12" value="AlertEvaluation" style="swimlane;fontStyle=1;align=center;verticalAlign=middle;childLayout=stackLayout;horizontal=1;startSize=30;horizontalStack=0;resizeParent=0;resizeLast=1;container=0;fontColor=#000000;collapsible=0;rounded=1;arcSize=30;strokeColor=#ff0000;fillColor=#ffffc0;swimlaneFillColor=#ffffc0;dropTarget=0;fontSize=15;" parent="1" vertex="1">
          <mxGeometry x="310" y="440" width="160" height="60" as="geometry" />
        </mxCell>
        <mxCell id="fu6rHGTz5UAiN8QeflM3-14" value="Alert Found" style="edgeStyle=orthogonalEdgeStyle;html=1;verticalAlign=bottom;endArrow=open;endSize=8;strokeColor=#ff0000;rounded=0;entryX=0.563;entryY=0.033;entryDx=0;entryDy=0;entryPerimeter=0;fontSize=15;" parent="1" source="fu6rHGTz5UAiN8QeflM3-12" target="fu6rHGTz5UAiN8QeflM3-15" edge="1">
          <mxGeometry relative="1" as="geometry">
            <mxPoint x="390" y="560" as="targetPoint" />
          </mxGeometry>
        </mxCell>
        <mxCell id="fu6rHGTz5UAiN8QeflM3-15" value="Alert Available" style="swimlane;fontStyle=1;align=center;verticalAlign=middle;childLayout=stackLayout;horizontal=1;startSize=30;horizontalStack=0;resizeParent=0;resizeLast=1;container=0;fontColor=#000000;collapsible=0;rounded=1;arcSize=30;strokeColor=#ff0000;fillColor=#ffffc0;swimlaneFillColor=#ffffc0;dropTarget=0;fontSize=15;" parent="1" vertex="1">
          <mxGeometry x="190" y="630" width="160" height="60" as="geometry" />
        </mxCell>
        <mxCell id="fu6rHGTz5UAiN8QeflM3-16" value="Alert Filtered" style="swimlane;fontStyle=1;align=center;verticalAlign=middle;childLayout=stackLayout;horizontal=1;startSize=30;horizontalStack=0;resizeParent=0;resizeLast=1;container=0;fontColor=#000000;collapsible=0;rounded=1;arcSize=30;strokeColor=#ff0000;fillColor=#ffffc0;swimlaneFillColor=#ffffc0;dropTarget=0;fontSize=15;" parent="1" vertex="1">
          <mxGeometry x="180" y="740" width="160" height="60" as="geometry" />
        </mxCell>
        <mxCell id="fu6rHGTz5UAiN8QeflM3-17" value="PushNotificationSent" style="swimlane;fontStyle=1;align=center;verticalAlign=middle;childLayout=stackLayout;horizontal=1;startSize=30;horizontalStack=0;resizeParent=0;resizeLast=1;container=0;fontColor=#000000;collapsible=0;rounded=1;arcSize=30;strokeColor=#ff0000;fillColor=#ffffc0;swimlaneFillColor=#ffffc0;dropTarget=0;fontSize=15;" parent="1" vertex="1">
          <mxGeometry x="240" y="849" width="160" height="60" as="geometry" />
        </mxCell>
        <mxCell id="fu6rHGTz5UAiN8QeflM3-26" value="" style="edgeStyle=orthogonalEdgeStyle;html=1;verticalAlign=bottom;endArrow=open;endSize=8;strokeColor=#ff0000;rounded=0;fontSize=15;" parent="1" edge="1">
          <mxGeometry relative="1" as="geometry">
            <mxPoint x="275" y="743" as="targetPoint" />
            <mxPoint x="280" y="690" as="sourcePoint" />
          </mxGeometry>
        </mxCell>
        <mxCell id="fu6rHGTz5UAiN8QeflM3-27" value="" style="edgeStyle=orthogonalEdgeStyle;html=1;verticalAlign=bottom;endArrow=open;endSize=8;strokeColor=#ff0000;rounded=0;fontSize=15;" parent="1" edge="1">
          <mxGeometry relative="1" as="geometry">
            <mxPoint x="285" y="853" as="targetPoint" />
            <mxPoint x="290" y="800" as="sourcePoint" />
          </mxGeometry>
        </mxCell>
        <mxCell id="fu6rHGTz5UAiN8QeflM3-28" value="Filter Alert Based on User Perferences" style="text;html=1;align=center;verticalAlign=middle;resizable=0;points=[];autosize=1;strokeColor=none;fillColor=none;fontSize=15;" parent="1" vertex="1">
          <mxGeometry x="150" y="698" width="280" height="30" as="geometry" />
        </mxCell>
        <mxCell id="fu6rHGTz5UAiN8QeflM3-29" value="Send Notification" style="text;html=1;align=center;verticalAlign=middle;resizable=0;points=[];autosize=1;strokeColor=none;fillColor=none;fontSize=15;" parent="1" vertex="1">
          <mxGeometry x="230" y="808" width="140" height="30" as="geometry" />
        </mxCell>
        <mxCell id="fu6rHGTz5UAiN8QeflM3-33" value="" style="ellipse;html=1;shape=endState;fillColor=#000000;strokeColor=#ff0000;fontSize=15;" parent="1" vertex="1">
          <mxGeometry x="490" y="990" width="30" height="30" as="geometry" />
        </mxCell>
        <mxCell id="fu6rHGTz5UAiN8QeflM3-36" value="" style="edgeStyle=orthogonalEdgeStyle;html=1;verticalAlign=bottom;endArrow=open;endSize=8;strokeColor=#ff0000;rounded=0;entryX=0;entryY=0.5;entryDx=0;entryDy=0;fontSize=15;" parent="1" target="fu6rHGTz5UAiN8QeflM3-33" edge="1">
          <mxGeometry relative="1" as="geometry">
            <mxPoint x="343" y="968" as="targetPoint" />
            <mxPoint x="343" y="908" as="sourcePoint" />
          </mxGeometry>
        </mxCell>
        <mxCell id="fu6rHGTz5UAiN8QeflM3-40" value="" style="edgeStyle=orthogonalEdgeStyle;html=1;verticalAlign=bottom;endArrow=open;endSize=8;strokeColor=#ff0000;rounded=0;exitX=0.75;exitY=1;exitDx=0;exitDy=0;entryX=1;entryY=0;entryDx=0;entryDy=0;fontSize=15;" parent="1" source="fu6rHGTz5UAiN8QeflM3-12" target="fu6rHGTz5UAiN8QeflM3-33" edge="1">
          <mxGeometry relative="1" as="geometry">
            <mxPoint x="560" y="1000" as="targetPoint" />
            <mxPoint x="560.1111111111109" y="940" as="sourcePoint" />
          </mxGeometry>
        </mxCell>
        <mxCell id="fu6rHGTz5UAiN8QeflM3-41" value="No ALERT" style="text;html=1;align=center;verticalAlign=middle;resizable=0;points=[];autosize=1;strokeColor=none;fillColor=none;fontSize=15;" parent="1" vertex="1">
          <mxGeometry x="405" y="698" width="90" height="30" as="geometry" />
        </mxCell>
      </root>
    </mxGraphModel>
  </diagram>
</mxfile>
